<svg width="16" height="17" viewBox="0 0 16 17" fill="none" xmlns="http://www.w3.org/2000/svg">
    <path d="M9.5 2.65796C9.5 1.82953 8.82843 1.15796 8 1.15796C7.17157 1.15796 6.5 1.82953 6.5 2.65796H5.5C5.5 1.27725 6.61929 0.157959 8 0.157959C9.38071 0.157959 10.5 1.27725 10.5 2.65796H15C15.2761 2.65796 15.5 2.88182 15.5 3.15796C15.5 3.4341 15.2761 3.65796 15 3.65796H14.446L13.1499 14.8872C13.0335 15.8964 12.179 16.658 11.1631 16.658H4.83688C3.821 16.658 2.9665 15.8964 2.85006 14.8872L1.553 3.65796H1C0.75454 3.65796 0.550392 3.48108 0.508056 3.24783L0.5 3.15796C0.5 2.88182 0.723858 2.65796 1 2.65796H9.5ZM13.438 3.65796H2.561L3.84347 14.7726C3.90169 15.2772 4.32894 15.658 4.83688 15.658H11.1631C11.6711 15.658 12.0983 15.2772 12.1565 14.7726L13.438 3.65796ZM6.5 6.15796C6.74546 6.15796 6.94961 6.31272 6.99194 6.51682L7 6.59546V12.7205C7 12.9621 6.77614 13.158 6.5 13.158C6.25454 13.158 6.05039 13.0032 6.00806 12.7991L6 12.7205V6.59546C6 6.35383 6.22386 6.15796 6.5 6.15796ZM9.5 6.15796C9.74546 6.15796 9.94961 6.31272 9.99194 6.51682L10 6.59546V12.7205C10 12.9621 9.77614 13.158 9.5 13.158C9.25454 13.158 9.05039 13.0032 9.00806 12.7991L9 12.7205V6.59546C9 6.35383 9.22386 6.15796 9.5 6.15796Z"
          fill="#999999"/>
</svg>
